<svg id="Calque_1" xmlns="http://www.w3.org/2000/svg" viewBox="0 0 94.16 95.1"><title>logo-linkedin</title><path d="M70.86,22.75c-26,0-47.08,21.29-47.08,47.56s21.08,47.55,47.08,47.55,47.08-21.28,47.08-47.55S96.87,22.75,70.86,22.75ZM62.12,88.05H54.18V62.5h7.94V88.05ZM58.17,59a4.63,4.63,0,1,1,4.61-4.67A4.66,4.66,0,0,1,58.17,59Zm33.75,29H84V87.49c0-4.14,0-8.28,0-12.42a16.26,16.26,0,0,0-.33-3.18c-0.49-2.34-2.13-3.17-4.36-3-2.51.21-3.61,1.75-4,3.93a14.93,14.93,0,0,0-.18,2.36c0,4.11,0,8.22,0,12.33V88h-8V62.51h7.6v3.36L74.89,66A1.39,1.39,0,0,1,75,65.74,7.92,7.92,0,0,1,80.59,62a11.41,11.41,0,0,1,6.35.62,7.27,7.27,0,0,1,4.28,5,21.23,21.23,0,0,1,.72,6q0,6.94,0,13.88C91.94,87.75,91.93,87.89,91.92,88.06Z" transform="translate(-23.78 -22.75)" style="fill:#fff"/></svg>